<svg id="レイヤー_1" data-name="レイヤー 1" xmlns="http://www.w3.org/2000/svg" viewBox="0 0 432 489.87"><defs><style>.cls-1{fill:#d2d2d2;}</style></defs><title>peelingEgg_ silhouette</title><path class="cls-1" d="M405.15,174.72l-.34-.17a77.94,77.94,0,0,0-24.27-7C363.37,128,340.59,91,315.09,61.75c-31.74-36.41-64.28-56.47-91.6-56.5h-.06C185.63,5.25,139,42.89,98.7,106,58.25,169.24,34.07,243.82,34,305.45,33.94,358.2,51.77,404,85.55,437.74c42,42,98.52,57,137.42,57,42.3,0,87.91-16.06,122-43a173.63,173.63,0,0,0,47-56.82q3.35,6.7,6.58,13.8c17.77,39,27.52,74.58,28.5,79.12a8.52,8.52,0,0,0,7.06,7.15,8,8,0,0,0,1.38.11,8.5,8.5,0,0,0,8.21-6.3C446.55,478.32,511.67,231.15,405.15,174.72Z" transform="translate(-34 -5.25)"/></svg>